<svg xmlns="http://www.w3.org/2000/svg" viewBox="0 0 100 100" data-nibor="tokens/opfor/opfor-eca-team-leader">
  <!-- ECA team leader - authority ring, standard body + helmet, carbine, leader badge. -->
  <!-- base ring: authority (c-ring-authority) -->
  <circle cx="50" cy="50" r="46" fill="#F8F6EE" stroke="#4A4E57" stroke-width="6"/>
  <!-- c-body-standard (recolored authority) - hands drawn over the weapon below -->
  <g id="c-body-standard">
    <rect x="-4.5" y="-16" width="9" height="32" rx="4.5" fill="#4A4E57" stroke="#2B2A26" stroke-width="3" transform="translate(42.75,36) rotate(22)"/>
    <rect x="-4.5" y="-12" width="9" height="24" rx="4.5" fill="#4A4E57" stroke="#2B2A26" stroke-width="3" transform="translate(57.25,42) rotate(-36)"/>
    <ellipse cx="50" cy="55" rx="27" ry="16" fill="#4A4E57" stroke="#2B2A26" stroke-width="3"/>
  </g>
  <!-- c-head-helmet (recolored authority) -->
  <g id="c-head-helmet">
    <circle cx="50" cy="50" r="13.5" fill="#4A4E57" stroke="#2B2A26" stroke-width="3"/>
    <circle cx="50" cy="50" r="9" fill="none" stroke="#2B2A26" stroke-width="1.5"/>
  </g>
  <!-- c-weapon-carbine -->
  <g id="c-weapon-carbine">
    <rect x="47.8" y="12" width="4.4" height="5" fill="#2B2A26"/><rect x="48.6" y="17" width="2.8" height="9" fill="#2B2A26"/><rect x="45.4" y="25.5" width="9.2" height="2.8" fill="#2B2A26"/><rect x="45.9" y="28.3" width="8.2" height="18" rx="2" fill="#2B2A26"/><rect x="44.4" y="46.3" width="11.2" height="16" rx="1.2" fill="#2B2A26"/><rect x="55.6" y="49.5" width="2.8" height="7" fill="#2B2A26"/><rect x="47.4" y="62.3" width="5.2" height="11" fill="#2B2A26"/><polygon points="44.8,73.3 55.2,73.3 56.6,85 43.4,85" fill="#2B2A26"/><rect x="42.6" y="85" width="14.8" height="3.6" rx="1" fill="#2B2A26"/>
  </g>
  <!-- hands on the weapon (from c-body-standard, drawn over the weapon) -->
  <circle cx="47.5" cy="24" r="4.2" fill="#C9BA95" stroke="#2B2A26" stroke-width="1.5"/>
  <circle cx="52.5" cy="34" r="4.2" fill="#C9BA95" stroke="#2B2A26" stroke-width="1.5"/>
  <!-- role badge: leader (glyph in faction color per style-guide 4.1) -->
  <rect x="71.5" y="71.5" width="22" height="22" rx="3" fill="#F8F6EE" stroke="#2B2A26" stroke-width="1.5"/>
  <g id="c-glyph-leader" transform="translate(73.7,73.7) scale(0.45)"><path d="M8,17.5 L20,6 L32,17.5 L32,24.5 L20,13 L8,24.5 Z" fill="#4A4E57"/><path d="M8,29.5 L20,18 L32,29.5 L32,36.5 L20,25 L8,36.5 Z" fill="#4A4E57"/></g>
  <!-- c-blind-notch (rear) -->
  <g id="c-blind-notch"><path d="M40.5,83 L50,91.5 L59.5,83 L59.5,76 L50,84.5 L40.5,76 Z" fill="#2B2A26"/></g>
</svg>
